# Blender 4.0.2
# www.blender.org
mtllib d5obj.mtl
o dodecahedron
v -0.460926 0.000000 -1.206720
v -0.745794 -0.745794 -0.745794
v -0.745794 0.745794 -0.745794
v -1.206720 0.460926 0.000000
v -1.206720 -0.460926 0.000000
v 0.460926 0.000000 1.206720
v -0.460926 0.000000 1.206720
v 0.745794 -0.745794 0.745794
v -0.745794 -0.745794 0.745794
v 0.000000 -1.206720 0.460926
v -0.745794 0.745794 0.745794
v 0.000000 1.206720 0.460926
v -0.000000 1.206720 -0.460926
v 0.745794 0.745794 -0.745794
v 0.745794 0.745794 0.745794
v 1.206720 0.460926 -0.000000
v 0.460926 -0.000000 -1.206720
v 0.745794 -0.745794 -0.745794
v -0.000000 -1.206720 -0.460926
v 1.206720 -0.460926 -0.000000
vn -0.8507 -0.0000 -0.5257
vn -0.0000 -0.5257 0.8507
vn -0.8507 -0.0000 0.5257
vn -0.5257 0.8507 -0.0000
vn 0.5257 0.8507 -0.0000
vn -0.0000 -0.5257 -0.8507
vn -0.0000 0.5257 -0.8507
vn 0.8507 -0.0000 -0.5257
vn -0.0000 0.5257 0.8507
vn 0.5257 -0.8507 -0.0000
vn 0.8507 -0.0000 0.5257
vn -0.5257 -0.8507 -0.0000
s 0
f 1//1 2//1 3//1
f 3//1 2//1 4//1
f 4//1 2//1 5//1
f 6//2 7//2 8//2
f 8//2 7//2 9//2
f 10//2 8//2 9//2
f 7//3 11//3 9//3
f 9//3 11//3 5//3
f 5//3 11//3 4//3
f 4//4 11//4 3//4
f 3//4 11//4 12//4
f 13//4 3//4 12//4
f 13//5 12//5 14//5
f 14//5 12//5 15//5
f 16//5 14//5 15//5
f 1//6 17//6 2//6
f 2//6 17//6 18//6
f 19//6 2//6 18//6
f 13//7 14//7 3//7
f 3//7 14//7 1//7
f 1//7 14//7 17//7
f 17//8 14//8 18//8
f 18//8 14//8 20//8
f 20//8 14//8 16//8
f 12//9 11//9 15//9
f 15//9 11//9 6//9
f 6//9 11//9 7//9
f 19//10 18//10 10//10
f 10//10 18//10 8//10
f 8//10 18//10 20//10
f 6//11 8//11 15//11
f 15//11 8//11 16//11
f 16//11 8//11 20//11
f 19//12 10//12 2//12
f 2//12 10//12 9//12
f 5//12 2//12 9//12
